<svg width="155" height="50" viewBox="0 0 155 50" fill="none" xmlns="http://www.w3.org/2000/svg">
<path d="M155 3.5L143 28L153.5 18.5L155 3.5Z" fill="#D8F3FF"/>
<path d="M142.5 15H3L155 0L142.5 25.5V15Z" fill="#D8F3FF"/>
<path d="M2.686 39.5C2.39133 39.5 2.244 39.3527 2.244 39.058V17.672C2.244 17.3773 2.39133 17.23 2.686 17.23H10.098C13.6567 17.23 16.2973 18.0573 18.02 19.712C19.7427 21.344 20.604 23.7693 20.604 26.988V29.266C20.604 32.666 19.7427 35.2273 18.02 36.95C16.32 38.65 13.6793 39.5 10.098 39.5H2.686ZM7.106 35.352H9.792C11.8547 35.352 13.362 34.8307 14.314 33.788C15.2887 32.7453 15.776 31.204 15.776 29.164V27.09C15.776 25.2087 15.2887 23.792 14.314 22.84C13.362 21.8653 11.8547 21.378 9.792 21.378H7.106V35.352ZM21.7212 39.5C21.4039 39.5 21.2906 39.3413 21.3812 39.024L28.5892 17.57C28.6799 17.3433 28.8499 17.23 29.0992 17.23H34.3012C34.5506 17.23 34.7092 17.3433 34.7772 17.57L42.0532 39.024C42.0986 39.16 42.0872 39.2733 42.0192 39.364C41.9739 39.4547 41.8719 39.5 41.7132 39.5H37.3272C37.0779 39.5 36.9192 39.3867 36.8512 39.16L32.9412 26.002C32.7146 25.2313 32.4992 24.4607 32.2952 23.69C32.0912 22.8967 31.8872 22.1147 31.6832 21.344H31.6152C31.4112 22.1147 31.2072 22.8967 31.0032 23.69C30.7992 24.4607 30.5839 25.2313 30.3572 26.002L26.5152 39.126C26.4472 39.3753 26.2886 39.5 26.0392 39.5H21.7212ZM26.9572 35.182L27.7732 31.306H35.4232L36.3072 35.182H26.9572ZM44.6548 39.5C44.3601 39.5 44.2127 39.3527 44.2127 39.058V17.672C44.2127 17.3773 44.3601 17.23 44.6548 17.23H58.2208C58.5154 17.23 58.6628 17.3773 58.6628 17.672V21.038C58.6628 21.31 58.5154 21.446 58.2208 21.446H49.0748V26.58H56.9288C57.2234 26.58 57.3708 26.7273 57.3708 27.022V30.252C57.3708 30.5467 57.2234 30.694 56.9288 30.694H49.0748V39.058C49.0748 39.3527 48.9274 39.5 48.6328 39.5H44.6548ZM58.6763 39.5C58.359 39.5 58.2456 39.3413 58.3363 39.024L65.5443 17.57C65.635 17.3433 65.805 17.23 66.0543 17.23H71.2563C71.5056 17.23 71.6643 17.3433 71.7323 17.57L79.0083 39.024C79.0536 39.16 79.0423 39.2733 78.9743 39.364C78.929 39.4547 78.827 39.5 78.6683 39.5H74.2823C74.033 39.5 73.8743 39.3867 73.8063 39.16L69.8963 26.002C69.6696 25.2313 69.4543 24.4607 69.2503 23.69C69.0463 22.8967 68.8423 22.1147 68.6383 21.344H68.5703C68.3663 22.1147 68.1623 22.8967 67.9583 23.69C67.7543 24.4607 67.539 25.2313 67.3123 26.002L63.4703 39.126C63.4023 39.3753 63.2436 39.5 62.9943 39.5H58.6763ZM63.9123 35.182L64.7283 31.306H72.3783L73.2623 35.182H63.9123ZM80.6055 39.5C80.3108 39.5 80.1635 39.364 80.1635 39.092V38.854C80.1635 38.65 80.2202 38.4687 80.3335 38.31L88.8335 24.642C89.1735 24.098 89.5022 23.5767 89.8195 23.078C90.1595 22.5567 90.4995 22.024 90.8395 21.48V21.412C90.2502 21.4347 89.6382 21.446 89.0035 21.446C88.3688 21.446 87.7455 21.446 87.1335 21.446H81.6255C81.3308 21.446 81.1835 21.31 81.1835 21.038V17.672C81.1835 17.3773 81.3308 17.23 81.6255 17.23H97.8435C98.1155 17.23 98.2515 17.366 98.2515 17.638V17.876C98.2515 17.9667 98.2402 18.0573 98.2175 18.148C98.1948 18.2387 98.1608 18.3293 98.1155 18.42L89.6835 31.714C89.3208 32.3033 88.9468 32.8927 88.5615 33.482C88.1988 34.0713 87.8135 34.6607 87.4055 35.25V35.318C88.0628 35.2953 88.7202 35.284 89.3775 35.284C90.0575 35.284 90.7375 35.284 91.4175 35.284H97.0275C97.3222 35.284 97.4695 35.42 97.4695 35.692V39.058C97.4695 39.3527 97.3222 39.5 97.0275 39.5H80.6055ZM99.2837 39.5C98.9664 39.5 98.8531 39.3413 98.9437 39.024L106.152 17.57C106.242 17.3433 106.412 17.23 106.662 17.23H111.864C112.113 17.23 112.272 17.3433 112.34 17.57L119.616 39.024C119.661 39.16 119.65 39.2733 119.582 39.364C119.536 39.4547 119.434 39.5 119.276 39.5H114.89C114.64 39.5 114.482 39.3867 114.414 39.16L110.504 26.002C110.277 25.2313 110.062 24.4607 109.858 23.69C109.654 22.8967 109.45 22.1147 109.246 21.344H109.178C108.974 22.1147 108.77 22.8967 108.566 23.69C108.362 24.4607 108.146 25.2313 107.92 26.002L104.078 39.126C104.01 39.3753 103.851 39.5 103.602 39.5H99.2837ZM104.52 35.182L105.336 31.306H112.986L113.87 35.182H104.52ZM122.217 39.5C121.923 39.5 121.775 39.3527 121.775 39.058V17.672C121.775 17.3773 121.923 17.23 122.217 17.23H127.623C127.85 17.23 128.02 17.332 128.133 17.536L132.995 27.328C133.335 28.0307 133.675 28.7447 134.015 29.47C134.355 30.1727 134.661 30.8527 134.933 31.51C135.228 32.1673 135.466 32.7793 135.647 33.346H135.749C135.704 32.8927 135.67 32.4053 135.647 31.884C135.625 31.34 135.602 30.796 135.579 30.252C135.557 29.6853 135.534 29.1413 135.511 28.62C135.511 28.076 135.511 27.5773 135.511 27.124V17.672C135.511 17.3773 135.647 17.23 135.919 17.23H139.761C140.056 17.23 140.203 17.3773 140.203 17.672V39.058C140.203 39.3527 140.056 39.5 139.761 39.5H134.423C134.174 39.5 134.004 39.398 133.913 39.194L129.187 29.81C128.87 29.1527 128.553 28.4613 128.235 27.736C127.918 26.988 127.601 26.2627 127.283 25.56C126.989 24.8347 126.717 24.166 126.467 23.554H126.365C126.388 24.0527 126.399 24.5853 126.399 25.152C126.422 25.696 126.433 26.2513 126.433 26.818C126.456 27.362 126.467 27.906 126.467 28.45C126.467 28.994 126.467 29.5267 126.467 30.048V39.058C126.467 39.3527 126.32 39.5 126.025 39.5H122.217Z" fill="#D8F3FF"/>
<path d="M118.605 13.5V5.5H121.91C122.509 5.5 123.026 5.60807 123.461 5.82422C123.898 6.03776 124.236 6.34505 124.473 6.74609C124.71 7.14453 124.828 7.61719 124.828 8.16406C124.828 8.71875 124.707 9.1901 124.465 9.57812C124.223 9.96354 123.879 10.2578 123.434 10.4609C122.988 10.6615 122.461 10.7617 121.852 10.7617H119.762V9.23828H121.492C121.784 9.23828 122.027 9.20052 122.223 9.125C122.421 9.04687 122.57 8.92969 122.672 8.77344C122.773 8.61458 122.824 8.41146 122.824 8.16406C122.824 7.91667 122.773 7.71224 122.672 7.55078C122.57 7.38672 122.421 7.26432 122.223 7.18359C122.025 7.10026 121.781 7.05859 121.492 7.05859H120.539V13.5H118.605ZM123.109 9.84375L125.102 13.5H122.992L121.039 9.84375H123.109ZM125.889 13.5V5.5H131.467V7.07031H127.822V8.71094H131.182V10.2852H127.822V11.9297H131.467V13.5H125.889ZM132.678 13.5V5.5H135.982C136.581 5.5 137.098 5.61719 137.533 5.85156C137.971 6.08333 138.308 6.40755 138.545 6.82422C138.782 7.23828 138.9 7.72005 138.9 8.26953C138.9 8.82161 138.779 9.30469 138.537 9.71875C138.298 10.1302 137.955 10.4492 137.51 10.6758C137.064 10.9023 136.536 11.0156 135.924 11.0156H133.885V9.49219H135.564C135.856 9.49219 136.1 9.44141 136.295 9.33984C136.493 9.23828 136.643 9.09635 136.744 8.91406C136.846 8.72917 136.896 8.51432 136.896 8.26953C136.896 8.02213 136.846 7.80859 136.744 7.62891C136.643 7.44661 136.493 7.30599 136.295 7.20703C136.097 7.10807 135.854 7.05859 135.564 7.05859H134.611V13.5H132.678ZM147.404 9.5C147.404 10.3802 147.235 11.1263 146.896 11.7383C146.558 12.3503 146.1 12.8151 145.521 13.1328C144.946 13.4505 144.3 13.6094 143.584 13.6094C142.865 13.6094 142.218 13.4492 141.643 13.1289C141.067 12.8086 140.61 12.3437 140.271 11.7344C139.936 11.1224 139.768 10.3776 139.768 9.5C139.768 8.61979 139.936 7.8737 140.271 7.26172C140.61 6.64974 141.067 6.1849 141.643 5.86719C142.218 5.54948 142.865 5.39062 143.584 5.39062C144.3 5.39062 144.946 5.54948 145.521 5.86719C146.1 6.1849 146.558 6.64974 146.896 7.26172C147.235 7.8737 147.404 8.61979 147.404 9.5ZM145.428 9.5C145.428 8.97917 145.354 8.53906 145.205 8.17969C145.059 7.82031 144.848 7.54818 144.572 7.36328C144.299 7.17839 143.969 7.08594 143.584 7.08594C143.201 7.08594 142.872 7.17839 142.596 7.36328C142.32 7.54818 142.107 7.82031 141.959 8.17969C141.813 8.53906 141.74 8.97917 141.74 9.5C141.74 10.0208 141.813 10.4609 141.959 10.8203C142.107 11.1797 142.32 11.4518 142.596 11.6367C142.872 11.8216 143.201 11.9141 143.584 11.9141C143.969 11.9141 144.299 11.8216 144.572 11.6367C144.848 11.4518 145.059 11.1797 145.205 10.8203C145.354 10.4609 145.428 10.0208 145.428 9.5Z" fill="#019CDE"/>
</svg>
